<mxfile host="app.diagrams.net" agent="Mozilla/5.0 (Windows NT 10.0; Win64; x64) AppleWebKit/537.36 (KHTML, like Gecko) Chrome/129.0.0.0 Safari/537.36" version="24.7.17">
  <diagram name="Page-1" id="BkcdIrGoTqKYmCHYiDRT">
    <mxGraphModel grid="1" page="1" gridSize="10" guides="1" tooltips="1" connect="1" arrows="1" fold="1" pageScale="1" pageWidth="850" pageHeight="1100" math="0" shadow="0">
      <root>
        <mxCell id="0" />
        <mxCell id="1" parent="0" />
        <mxCell id="_8Bib2gzErc-9GVNgi2H-1" value="Sistem Pendaftaran&amp;nbsp;&lt;div&gt;Kelas&lt;/div&gt;" style="html=1;dropTarget=0;whiteSpace=wrap;" vertex="1" parent="1">
          <mxGeometry x="335.5" y="80" width="180" height="60" as="geometry" />
        </mxCell>
        <mxCell id="_8Bib2gzErc-9GVNgi2H-2" value="" style="shape=module;jettyWidth=8;jettyHeight=4;" vertex="1" parent="_8Bib2gzErc-9GVNgi2H-1">
          <mxGeometry x="1" width="20" height="20" relative="1" as="geometry">
            <mxPoint x="-27" y="7" as="offset" />
          </mxGeometry>
        </mxCell>
        <mxCell id="_8Bib2gzErc-9GVNgi2H-5" value="" style="verticalAlign=top;align=left;spacingTop=8;spacingLeft=2;spacingRight=12;shape=cube;size=10;direction=south;fontStyle=4;html=1;whiteSpace=wrap;" vertex="1" parent="1">
          <mxGeometry x="248" y="200" width="355" height="250" as="geometry" />
        </mxCell>
        <mxCell id="_8Bib2gzErc-9GVNgi2H-14" style="edgeStyle=orthogonalEdgeStyle;rounded=0;orthogonalLoop=1;jettySize=auto;html=1;exitX=1;exitY=0.5;exitDx=0;exitDy=0;entryX=0.934;entryY=0.014;entryDx=0;entryDy=0;entryPerimeter=0;" edge="1" parent="1" source="_8Bib2gzErc-9GVNgi2H-6" target="_8Bib2gzErc-9GVNgi2H-9">
          <mxGeometry relative="1" as="geometry" />
        </mxCell>
        <mxCell id="_8Bib2gzErc-9GVNgi2H-19" value="memeriksa kelas&lt;div&gt;yang tersedia&lt;/div&gt;" style="edgeLabel;html=1;align=center;verticalAlign=middle;resizable=0;points=[];" connectable="0" vertex="1" parent="_8Bib2gzErc-9GVNgi2H-14">
          <mxGeometry x="-0.3185" relative="1" as="geometry">
            <mxPoint as="offset" />
          </mxGeometry>
        </mxCell>
        <mxCell id="_8Bib2gzErc-9GVNgi2H-6" value="Mengelola Pendaftaran Mahasiswa" style="html=1;dropTarget=0;whiteSpace=wrap;" vertex="1" parent="1">
          <mxGeometry x="270" y="220" width="180" height="60" as="geometry" />
        </mxCell>
        <mxCell id="_8Bib2gzErc-9GVNgi2H-7" value="" style="shape=module;jettyWidth=8;jettyHeight=4;" vertex="1" parent="_8Bib2gzErc-9GVNgi2H-6">
          <mxGeometry x="1" width="20" height="20" relative="1" as="geometry">
            <mxPoint x="-27" y="7" as="offset" />
          </mxGeometry>
        </mxCell>
        <mxCell id="_8Bib2gzErc-9GVNgi2H-9" value="Mengelola Daftar&amp;nbsp;&lt;div&gt;Kelas&lt;/div&gt;" style="html=1;dropTarget=0;whiteSpace=wrap;" vertex="1" parent="1">
          <mxGeometry x="400" y="300" width="180" height="60" as="geometry" />
        </mxCell>
        <mxCell id="_8Bib2gzErc-9GVNgi2H-10" value="" style="shape=module;jettyWidth=8;jettyHeight=4;" vertex="1" parent="_8Bib2gzErc-9GVNgi2H-9">
          <mxGeometry x="1" width="20" height="20" relative="1" as="geometry">
            <mxPoint x="-27" y="7" as="offset" />
          </mxGeometry>
        </mxCell>
        <mxCell id="_8Bib2gzErc-9GVNgi2H-11" value="Mengelola Nilai" style="html=1;dropTarget=0;whiteSpace=wrap;" vertex="1" parent="1">
          <mxGeometry x="270" y="380" width="180" height="60" as="geometry" />
        </mxCell>
        <mxCell id="_8Bib2gzErc-9GVNgi2H-12" value="" style="shape=module;jettyWidth=8;jettyHeight=4;" vertex="1" parent="_8Bib2gzErc-9GVNgi2H-11">
          <mxGeometry x="1" width="20" height="20" relative="1" as="geometry">
            <mxPoint x="-27" y="7" as="offset" />
          </mxGeometry>
        </mxCell>
        <mxCell id="_8Bib2gzErc-9GVNgi2H-15" style="edgeStyle=orthogonalEdgeStyle;rounded=0;orthogonalLoop=1;jettySize=auto;html=1;exitX=0;exitY=0.5;exitDx=0;exitDy=0;entryX=0.03;entryY=-0.003;entryDx=0;entryDy=0;entryPerimeter=0;" edge="1" parent="1" source="_8Bib2gzErc-9GVNgi2H-9" target="_8Bib2gzErc-9GVNgi2H-11">
          <mxGeometry relative="1" as="geometry" />
        </mxCell>
        <mxCell id="_8Bib2gzErc-9GVNgi2H-20" value="memproses kelas&amp;nbsp;&lt;div&gt;yang sudah&amp;nbsp;&lt;/div&gt;&lt;div&gt;melaksanakan ujian&lt;/div&gt;" style="edgeLabel;html=1;align=center;verticalAlign=middle;resizable=0;points=[];" connectable="0" vertex="1" parent="_8Bib2gzErc-9GVNgi2H-15">
          <mxGeometry x="-0.2712" y="1" relative="1" as="geometry">
            <mxPoint as="offset" />
          </mxGeometry>
        </mxCell>
        <mxCell id="_8Bib2gzErc-9GVNgi2H-18" style="rounded=0;orthogonalLoop=1;jettySize=auto;html=1;exitX=0.5;exitY=1;exitDx=0;exitDy=0;" edge="1" parent="1" source="_8Bib2gzErc-9GVNgi2H-1">
          <mxGeometry relative="1" as="geometry">
            <mxPoint x="426" y="200" as="targetPoint" />
          </mxGeometry>
        </mxCell>
        <mxCell id="_8Bib2gzErc-9GVNgi2H-21" value="Mahasiswa mendaftar kelas" style="edgeLabel;html=1;align=center;verticalAlign=middle;resizable=0;points=[];" connectable="0" vertex="1" parent="_8Bib2gzErc-9GVNgi2H-18">
          <mxGeometry x="-0.089" relative="1" as="geometry">
            <mxPoint as="offset" />
          </mxGeometry>
        </mxCell>
        <mxCell id="_8Bib2gzErc-9GVNgi2H-23" value="" style="verticalAlign=top;align=left;spacingTop=8;spacingLeft=2;spacingRight=12;shape=cube;size=10;direction=south;fontStyle=4;html=1;whiteSpace=wrap;" vertex="1" parent="1">
          <mxGeometry x="145" y="520" width="560" height="100" as="geometry" />
        </mxCell>
        <mxCell id="_8Bib2gzErc-9GVNgi2H-24" value="Database&lt;div&gt;Mahasiswa&lt;/div&gt;" style="html=1;dropTarget=0;whiteSpace=wrap;" vertex="1" parent="1">
          <mxGeometry x="170" y="550" width="140" height="50" as="geometry" />
        </mxCell>
        <mxCell id="_8Bib2gzErc-9GVNgi2H-25" value="" style="shape=module;jettyWidth=8;jettyHeight=4;" vertex="1" parent="_8Bib2gzErc-9GVNgi2H-24">
          <mxGeometry x="1" width="20" height="20" relative="1" as="geometry">
            <mxPoint x="-27" y="7" as="offset" />
          </mxGeometry>
        </mxCell>
        <mxCell id="_8Bib2gzErc-9GVNgi2H-26" value="Database&lt;div&gt;Kelas&lt;/div&gt;" style="html=1;dropTarget=0;whiteSpace=wrap;" vertex="1" parent="1">
          <mxGeometry x="350" y="550" width="139.5" height="50" as="geometry" />
        </mxCell>
        <mxCell id="_8Bib2gzErc-9GVNgi2H-27" value="" style="shape=module;jettyWidth=8;jettyHeight=4;" vertex="1" parent="_8Bib2gzErc-9GVNgi2H-26">
          <mxGeometry x="1" width="20" height="20" relative="1" as="geometry">
            <mxPoint x="-27" y="7" as="offset" />
          </mxGeometry>
        </mxCell>
        <mxCell id="_8Bib2gzErc-9GVNgi2H-28" value="Database&lt;div&gt;Nilai&lt;/div&gt;" style="html=1;dropTarget=0;whiteSpace=wrap;" vertex="1" parent="1">
          <mxGeometry x="530" y="550" width="140" height="50" as="geometry" />
        </mxCell>
        <mxCell id="_8Bib2gzErc-9GVNgi2H-29" value="" style="shape=module;jettyWidth=8;jettyHeight=4;" vertex="1" parent="_8Bib2gzErc-9GVNgi2H-28">
          <mxGeometry x="1" width="20" height="20" relative="1" as="geometry">
            <mxPoint x="-27" y="7" as="offset" />
          </mxGeometry>
        </mxCell>
        <mxCell id="_8Bib2gzErc-9GVNgi2H-30" style="edgeStyle=orthogonalEdgeStyle;rounded=0;orthogonalLoop=1;jettySize=auto;html=1;exitX=0;exitY=0.5;exitDx=0;exitDy=0;entryX=0.361;entryY=0.008;entryDx=0;entryDy=0;entryPerimeter=0;" edge="1" parent="1" source="_8Bib2gzErc-9GVNgi2H-11" target="_8Bib2gzErc-9GVNgi2H-24">
          <mxGeometry relative="1" as="geometry">
            <Array as="points">
              <mxPoint x="220" y="410" />
            </Array>
          </mxGeometry>
        </mxCell>
        <mxCell id="_8Bib2gzErc-9GVNgi2H-31" value="Mengambil&amp;nbsp;&lt;div&gt;Data Mahasiswa&lt;/div&gt;" style="edgeLabel;html=1;align=center;verticalAlign=middle;resizable=0;points=[];" connectable="0" vertex="1" parent="_8Bib2gzErc-9GVNgi2H-30">
          <mxGeometry x="0.207" relative="1" as="geometry">
            <mxPoint as="offset" />
          </mxGeometry>
        </mxCell>
        <mxCell id="_8Bib2gzErc-9GVNgi2H-32" style="rounded=0;orthogonalLoop=1;jettySize=auto;html=1;exitX=0.873;exitY=1.025;exitDx=0;exitDy=0;entryX=0.557;entryY=-0.025;entryDx=0;entryDy=0;entryPerimeter=0;exitPerimeter=0;" edge="1" parent="1" source="_8Bib2gzErc-9GVNgi2H-11" target="_8Bib2gzErc-9GVNgi2H-26">
          <mxGeometry relative="1" as="geometry" />
        </mxCell>
        <mxCell id="_8Bib2gzErc-9GVNgi2H-33" value="Mengambil data dan&lt;div&gt;daftar kelas&lt;/div&gt;" style="edgeLabel;html=1;align=center;verticalAlign=middle;resizable=0;points=[];" connectable="0" vertex="1" parent="_8Bib2gzErc-9GVNgi2H-32">
          <mxGeometry x="-0.2317" y="1" relative="1" as="geometry">
            <mxPoint as="offset" />
          </mxGeometry>
        </mxCell>
        <mxCell id="_8Bib2gzErc-9GVNgi2H-34" style="edgeStyle=orthogonalEdgeStyle;rounded=0;orthogonalLoop=1;jettySize=auto;html=1;exitX=1;exitY=0.5;exitDx=0;exitDy=0;entryX=0.884;entryY=0.048;entryDx=0;entryDy=0;entryPerimeter=0;" edge="1" parent="1" source="_8Bib2gzErc-9GVNgi2H-11" target="_8Bib2gzErc-9GVNgi2H-28">
          <mxGeometry relative="1" as="geometry" />
        </mxCell>
        <mxCell id="_8Bib2gzErc-9GVNgi2H-35" value="Memberikan Nilai akhir&lt;div&gt;Mahasiswa&lt;/div&gt;" style="edgeLabel;html=1;align=center;verticalAlign=middle;resizable=0;points=[];" connectable="0" vertex="1" parent="_8Bib2gzErc-9GVNgi2H-34">
          <mxGeometry x="0.5448" y="1" relative="1" as="geometry">
            <mxPoint as="offset" />
          </mxGeometry>
        </mxCell>
        <mxCell id="_8Bib2gzErc-9GVNgi2H-36" value="Deployment Diagram Soal Kasus 5.1 (halaman 160)" style="text;html=1;align=center;verticalAlign=middle;whiteSpace=wrap;rounded=0;fontSize=17;fontStyle=1" vertex="1" parent="1">
          <mxGeometry x="179.75" y="30" width="480" height="30" as="geometry" />
        </mxCell>
      </root>
    </mxGraphModel>
  </diagram>
</mxfile>
